<?xml version="1.0" standalone="no"?>
<!DOCTYPE svg PUBLIC "-//W3C//DTD SVG 20010904//EN"
 "http://www.w3.org/TR/2001/REC-SVG-20010904/DTD/svg10.dtd">
<svg version="1.0" xmlns="http://www.w3.org/2000/svg"
 width="500.000000pt" height="394.000000pt" viewBox="0 0 500.000000 394.000000"
 preserveAspectRatio="xMidYMid meet">

<g transform="translate(0.000000,394.000000) scale(0.100000,-0.100000)"
fill="#000000" stroke="none">
<path d="M1645 3930 c-258 -29 -458 -76 -733 -175 -371 -132 -721 -309 -843
-425 -66 -63 -79 -97 -56 -146 39 -81 151 -120 211 -73 33 26 33 49 1 79 -14
13 -25 30 -25 37 0 20 95 77 280 169 395 196 868 346 1212 384 174 20 366 -15
383 -69 9 -31 -21 -86 -74 -132 -143 -127 -408 -299 -685 -444 -151 -80 -182
-104 -197 -154 -9 -31 -8 -43 5 -69 31 -60 144 -106 291 -117 148 -12 245 -39
245 -69 0 -21 -40 -50 -145 -106 -55 -30 -125 -69 -155 -87 -30 -18 -60 -33
-67 -33 -15 0 -136 210 -318 555 -199 375 -188 359 -236 352 -56 -7 -129 -45
-129 -66 0 -24 272 -489 420 -718 66 -101 120 -189 120 -194 0 -4 -35 -32 -77
-60 -115 -76 -163 -118 -163 -140 0 -23 66 -99 86 -99 8 0 65 34 127 75 61 41
117 75 122 75 6 0 35 -34 65 -76 53 -74 81 -100 94 -87 17 17 4 102 -24 162
-17 35 -29 65 -28 66 2 1 64 37 138 80 344 197 407 254 385 343 -10 40 -51 90
-93 111 -46 23 -115 37 -257 52 -60 6 -118 15 -127 20 -37 20 -38 19 330 234
363 212 601 441 578 556 -14 73 -91 147 -183 176 -58 18 -358 26 -478 13z"/>
<path d="M2737 3933 c-36 -9 -244 -291 -380 -516 -87 -143 -225 -423 -272
-551 -64 -176 -84 -353 -47 -425 29 -57 64 -76 140 -76 55 0 75 5 115 28 64
38 170 139 278 264 l88 103 6 -48 c18 -121 64 -167 170 -166 91 1 143 33 308
193 48 46 87 80 87 74 0 -6 -21 -64 -46 -130 -68 -174 -94 -253 -94 -285 0
-42 26 -87 55 -94 51 -13 92 37 130 156 47 146 180 337 296 424 88 66 117 80
135 65 19 -16 18 -100 -2 -186 -22 -93 -22 -170 -1 -210 37 -69 126 -83 216
-33 30 17 56 30 57 30 2 0 10 -15 17 -32 19 -44 63 -87 112 -109 44 -21 138
-25 181 -9 42 16 40 5 -9 -42 -64 -61 -577 -684 -794 -963 -236 -305 -616
-854 -732 -1059 l-34 -58 -28 28 c-28 29 -184 275 -359 564 -51 85 -190 301
-309 480 -227 340 -271 415 -271 462 0 25 13 37 113 102 99 65 207 126 221
126 17 0 112 -260 296 -810 109 -326 147 -423 162 -414 35 22 -80 543 -243
1099 -48 161 -49 170 -32 183 15 12 79 13 383 8 426 -7 618 -19 662 -42 36
-19 164 -108 196 -137 12 -11 22 -27 22 -34 0 -8 -33 -57 -74 -111 -147 -194
-387 -549 -490 -725 -32 -54 -60 -96 -63 -93 -3 3 6 43 20 88 14 46 67 243
117 438 50 195 98 375 106 399 21 66 18 90 -12 101 -35 14 -87 12 -107 -3 -25
-19 -178 -661 -267 -1129 -42 -215 -62 -402 -42 -383 5 6 142 201 303 435 315
457 413 595 581 817 78 103 108 151 108 171 0 52 -72 127 -210 219 -119 79
-121 80 -321 100 -217 21 -919 25 -1024 5 -81 -16 -187 -72 -396 -213 -191
-128 -211 -150 -191 -209 10 -28 209 -346 332 -530 152 -227 436 -690 665
-1085 115 -199 131 -212 178 -155 14 16 65 94 113 172 243 398 571 864 867
1233 310 386 578 698 1125 1309 84 93 152 176 152 183 0 7 -11 20 -25 29 -24
15 -29 15 -68 0 -25 -9 -91 -59 -162 -122 -273 -243 -347 -288 -478 -289 -74
0 -80 2 -103 28 -13 16 -24 41 -24 57 0 57 116 128 319 195 93 31 115 35 122
24 5 -8 9 -20 9 -26 0 -31 82 8 148 70 39 37 41 61 7 83 -21 14 -44 16 -133
11 -198 -9 -367 -75 -588 -230 -66 -46 -127 -86 -137 -90 -26 -10 -30 11 -12
84 18 79 20 264 2 299 -7 13 -28 35 -46 47 -62 42 -159 25 -281 -47 -46 -28
-86 -50 -90 -50 -5 0 -4 19 1 41 8 33 6 47 -6 66 -21 32 -39 38 -74 23 -48
-19 -81 -48 -272 -231 -100 -96 -192 -180 -205 -187 -31 -16 -61 -1 -70 34 -9
37 2 151 21 212 9 29 30 68 46 87 l31 35 -35 35 c-64 64 -110 48 -214 -78
-199 -240 -425 -495 -448 -505 -22 -10 -28 -9 -46 9 -26 26 -21 63 33 224 92
275 284 613 539 952 90 119 104 144 96 167 -12 30 -80 59 -120 49z"/>
<path d="M3040 3589 c-30 -17 -66 -44 -78 -60 -32 -40 -40 -101 -17 -135 15
-23 22 -26 58 -21 54 7 181 71 207 104 22 29 26 79 7 104 -36 47 -101 50 -177
8z"/>
</g>
</svg>
